<svg xmlns="http://www.w3.org/2000/svg" id="Capa_1" style="enable-background:new 0 0 212.982 212.982;" viewBox="0 0 212.982 212.982" x="0px" y="0px" xmlns:xlink="http://www.w3.org/1999/xlink" version="1.1" xmlns:xml="http://www.w3.org/XML/1998/namespace" xml:space="preserve">
<g id="Close">
	<path style="fill-rule:evenodd;clip-rule:evenodd;" d="M 131.804 106.491 l 75.936 -75.936 c 6.99 -6.99 6.99 -18.323 0 -25.312 c -6.99 -6.99 -18.322 -6.99 -25.312 0 l -75.937 75.937 L 30.554 5.242 c -6.99 -6.99 -18.322 -6.99 -25.312 0 c -6.989 6.99 -6.989 18.323 0 25.312 l 75.937 75.936 L 5.242 182.427 c -6.989 6.99 -6.989 18.323 0 25.312 c 6.99 6.99 18.322 6.99 25.312 0 l 75.937 -75.937 l 75.937 75.937 c 6.989 6.99 18.322 6.99 25.312 0 c 6.99 -6.99 6.99 -18.322 0 -25.312 L 131.804 106.491 Z" />
</g>
<g>
</g>
<g>
</g>
<g>
</g>
<g>
</g>
<g>
</g>
<g>
</g>
<g>
</g>
<g>
</g>
<g>
</g>
<g>
</g>
<g>
</g>
<g>
</g>
<g>
</g>
<g>
</g>
<g>
</g>
</svg>