<svg xmlns="http://www.w3.org/2000/svg" class="icon sm" viewBox="0 0 24 24"><path clip-rule="evenodd" fill-rule="evenodd" d="M 21.231 0 h -18.462 c -1.529 0 -2.769 1.24 -2.769 2.769 v 18.46 c 0 1.531 1.24 2.771 2.769 2.771 h 18.463 c 1.529 0 2.768 -1.24 2.768 -2.771 v -18.46 c 0 -1.529 -1.239 -2.769 -2.769 -2.769 Z m -9.231 7.385 c 2.549 0 4.616 2.065 4.616 4.615 c 0 2.549 -2.067 4.616 -4.616 4.616 s -4.615 -2.068 -4.615 -4.616 c 0 -2.55 2.066 -4.615 4.615 -4.615 Z m 9 12.693 c 0 0.509 -0.413 0.922 -0.924 0.922 h -16.152 c -0.511 0 -0.924 -0.413 -0.924 -0.922 v -10.078 h 1.897 c -0.088 0.315 -0.153 0.64 -0.2 0.971 c -0.05 0.337 -0.081 0.679 -0.081 1.029 c 0 4.079 3.306 7.385 7.384 7.385 s 7.384 -3.306 7.384 -7.385 c 0 -0.35 -0.031 -0.692 -0.081 -1.028 c -0.047 -0.331 -0.112 -0.656 -0.2 -0.971 h 1.897 v 10.077 Z m 0 -13.98 c 0 0.509 -0.413 0.923 -0.924 0.923 h -2.174 c -0.511 0 -0.923 -0.414 -0.923 -0.923 v -2.175 c 0 -0.51 0.412 -0.923 0.923 -0.923 h 2.174 c 0.511 0 0.924 0.413 0.924 0.923 v 2.175 Z" /></svg>