<?xml version="1.0" encoding="utf-8"?>
<!-- Generator: Adobe Illustrator 15.0.0, SVG Export Plug-In . SVG Version: 6.00 Build 0)  -->
<!DOCTYPE svg PUBLIC "-//W3C//DTD SVG 1.1//EN" "http://www.w3.org/Graphics/SVG/1.1/DTD/svg11.dtd">
<svg version="1.1" xmlns="http://www.w3.org/2000/svg" xmlns:xlink="http://www.w3.org/1999/xlink" x="0px" y="0px"
	 width="143.972px" height="117.931px" viewBox="0 0 143.972 117.931" enable-background="new 0 0 143.972 117.931"
	 xml:space="preserve">
<g id="Layer_1">
	<g>
		<path d="M90.918,83.211c-3.467,5.367-7.983,9.643-13.241,12.679v18.217c13.972-5.451,24.986-16.429,31.146-30.896H90.918z"/>
		<path d="M107.916,33.12C101.843,19.143,91.169,8.858,77.677,3.709v18.16c4.706,2.703,8.789,6.455,12.028,11.25H107.916z"/>
		<path d="M60.854,101.098c-1.28,0.113-2.575,0.176-3.888,0.176c-11.16,0-21.32-4.831-28.649-12.492
			c-7.33-7.663-11.993-17.99-11.993-29.651c0-11.993,4.663-22.32,11.993-29.981c7.329-7.662,17.49-12.494,28.649-12.494
			c1.314,0,2.61,0.059,3.888,0.162c0,0,0.001-15.537,0.001-16.695C59.574,0.042,58.277,0,56.966,0
			c-15.824,0-30.148,6.828-40.31,17.322C6.664,27.983,0,42.641,0,59.13c0,16.158,6.664,30.816,16.657,41.476
			c10.161,10.659,24.486,17.324,40.31,17.324c1.311,0,2.607-0.043,3.888-0.125C60.854,115.157,60.854,101.098,60.854,101.098z"/>
		<path d="M126.982,0v49.803H77.677V21.869c-4.993-2.871-10.69-4.554-16.823-5.052v84.28c6.094-0.529,11.795-2.304,16.823-5.208
			V66.46h49.305v51.471h16.99V0H126.982z"/>
	</g>
</g>
<g id="Layer_2">
</g>
</svg>
